Coordinates
version=1
nRows=14
nColumns=46
inDegrees=yes

Units are S.I. units (second, meters, Newtons, ...)
Angles are in degrees.

endheader
time	pelvis_tilt	pelvis_list	pelvis_rotation	pelvis_tx	pelvis_ty	pelvis_tz	bb_angle	bb_tx	bb_ty	bb_tz	hip_flexion_r	hip_adduction_r	hip_rotation_r	knee_angle_r	knee_angle_r_beta	ankle_angle_r	subtalar_angle_r	mtp_angle_r	crank_angle_r	hip_flexion_l	hip_adduction_l	hip_rotation_l	knee_angle_l	knee_angle_l_beta	ankle_angle_l	subtalar_angle_l	mtp_angle_l	crank_angle_l	lumbar_extension	lumbar_bending	lumbar_rotation	arm_flex_r	arm_add_r	arm_rot_r	elbow_flex_r	pro_sup_r	wrist_flex_r	wrist_dev_r	arm_flex_l	arm_add_l	arm_rot_l	elbow_flex_l	pro_sup_l	wrist_flex_l	wrist_dev_l
      5.00000000	    -19.35010119	     -6.58889776	      5.17030275	      0.34410527	      1.21897423	     -0.24467580	      0.00000000	      0.50000000	      0.00000000	      0.25000000	     52.84436301	    -10.49799611	     -9.78811304	     87.05528242	      1.51940131	     -8.79114971	      2.29268403	      0.00000000	      0.00000000	     50.30402958	     -8.55433607	      1.70670416	     47.84087621	      0.83498081	      8.29717231	      4.57431131	      0.00000000	      0.00000000	    -57.76691100	      1.22577470	      6.56860303	     69.03690128	    -23.47857931	     39.95626039	     42.55921058	     46.27196570	      0.00000000	      0.00000000	     73.48373867	     -3.06635922	     43.85987358	     39.51170998	     42.07255589	      0.00000000	      0.00000000
      5.00500000	    -19.52464715	     -6.93494349	      4.95801955	      0.34443875	      1.21563169	     -0.24560497	      0.00000000	      0.50000000	      0.00000000	      0.25000000	     54.38954220	    -10.78985560	     -9.70902369	     89.42677201	      1.56079161	     -7.26738893	      3.67222387	      0.00000000	      0.00000000	     49.23350126	     -8.87869569	      1.68377738	     46.04320832	      0.80360558	      7.29144278	      4.41506183	      0.00000000	      0.00000000	    -57.30742615	      1.65957337	      6.59789982	     69.14528186	    -23.26278600	     40.77844796	     42.52390890	     46.38362731	      0.00000000	      0.00000000	     72.78071805	     -3.61357311	     43.43779777	     40.12427264	     42.17435460	      0.00000000	      0.00000000
      5.01000000	    -19.43462644	     -7.36551901	      4.96817655	      0.34479146	      1.21270495	     -0.24625421	      0.00000000	      0.50000000	      0.00000000	      0.25000000	     55.58602092	    -11.08928202	     -9.87944210	     91.69437675	      1.60036878	     -5.88624023	      4.51403683	      0.00000000	      0.00000000	     47.91247529	     -9.14457263	      1.96753482	     44.25072980	      0.77232093	      6.30264180	      4.31193766	      0.00000000	      0.00000000	    -57.13476294	      2.29611442	      6.49018229	     69.52733707	    -22.90878062	     42.00988725	     42.32418941	     46.52418960	      0.00000000	      0.00000000	     72.03314289	     -4.40992466	     42.78683273	     41.06642556	     42.32737669	      0.00000000	      0.00000000
      5.01500000	    -19.36373024	     -8.11568265	      4.76349035	      0.34512789	      1.20979308	     -0.24688264	      0.00000000	      0.50000000	      0.00000000	      0.25000000	     56.82381212	    -10.96393197	    -10.21722179	     93.78026634	      1.63677442	     -5.01864527	      4.52814856	      0.00000000	      0.00000000	     46.70950284	     -9.83709874	      2.27594638	     42.65758260	      0.74451527	      5.60382179	      4.44534935	      0.00000000	      0.00000000	    -56.91285725	      3.02481467	      7.06312759	     69.57168528	    -22.72360449	     42.21037148	     42.38008690	     46.55592865	      0.00000000	      0.00000000	     71.58011742	     -4.65385228	     42.69584940	     41.09800163	     42.34005249	      0.00000000	      0.00000000
      5.02000000	    -19.38117767	     -8.48422484	      4.47969157	      0.34569049	      1.20696970	     -0.24783235	      0.00000000	      0.50000000	      0.00000000	      0.25000000	     58.19340669	    -11.11855248	    -10.07684045	     95.86124473	      1.67309435	     -3.55438627	      5.81332790	      0.00000000	      0.00000000	     45.41518344	    -10.22227553	      2.29883868	     40.97121162	      0.71508254	      4.49674253	      4.04589161	      0.00000000	      0.00000000	    -56.59318057	      3.46218751	      6.94696748	     69.81026361	    -22.35099613	     43.38721467	     42.16348132	     46.68073827	      0.00000000	      0.00000000	     70.64846460	     -5.03806580	     42.61505915	     41.85861221	     42.51702633	      0.00000000	      0.00000000
      5.02500000	    -19.25698958	     -8.99650983	      4.17029724	      0.34629792	      1.20461973	     -0.24862315	      0.00000000	      0.50000000	      0.00000000	      0.25000000	     59.38207946	    -11.05554542	    -10.07387938	     97.74815008	      1.70602706	     -2.45867742	      6.44084498	      0.00000000	      0.00000000	     44.02609718	    -10.83013678	      2.30640805	     39.37229760	      0.68717623	      3.60668029	      4.10519913	      0.00000000	      0.00000000	    -56.38680165	      4.03777003	      7.11272187	     70.31264276	    -22.04985065	     44.97721685	     41.69056784	     46.81929101	      0.00000000	      0.00000000	     69.97479019	     -6.05793065	     41.65528162	     42.40240663	     42.58715419	      0.00000000	      0.00000000
      5.03000000	    -19.22181835	     -9.62474311	      3.89681151	      0.34665998	      1.20233536	     -0.24953194	      0.00000000	      0.50000000	      0.00000000	      0.25000000	     60.64561064	    -10.90997278	    -10.24325020	     99.46829311	      1.73604922	     -1.59711666	      6.49069935	      0.00000000	      0.00000000	     42.90606246	    -11.57802899	      2.33523185	     38.01677235	      0.66351785	      2.71207273	      4.51238453	      0.00000000	      0.00000000	    -56.14327702	      4.69109656	      7.57404735	     70.37498968	    -21.91686118	     45.14394695	     41.69670955	     46.83481647	      0.00000000	      0.00000000	     69.50272638	     -6.29831929	     41.55709463	     42.35567099	     42.59002035	      0.00000000	      0.00000000
      5.03500000	    -19.16365873	    -10.14217620	      3.55687942	      0.34717373	      1.20026379	     -0.25040650	      0.00000000	      0.50000000	      0.00000000	      0.25000000	     61.91653528	    -10.79414176	    -10.25947169	    101.10234959	      1.76456888	     -0.88727842	      6.77701747	      0.00000000	      0.00000000	     41.68012694	    -12.25156979	      2.23726694	     36.71160986	      0.64073847	      1.99135771	      4.66058846	      0.00000000	      0.00000000	    -55.91454941	      5.27722527	      8.02194882	     70.33882379	    -21.72020450	     45.31519148	     41.72097567	     46.85328524	      0.00000000	      0.00000000	     69.11440526	     -6.54076450	     41.48004399	     42.27482313	     42.58608871	      0.00000000	      0.00000000
      5.04000000	    -18.98799487	    -10.20860811	      3.00708074	      0.34807198	      1.19904628	     -0.25096790	      0.00000000	      0.50000000	      0.00000000	      0.25000000	     63.13800837	    -10.69258823	     -9.68720941	    102.63293185	      1.79128258	      0.17614029	      7.92566066	      0.00000000	      0.00000000	     39.97845522	    -12.67474435	      1.57889667	     35.12608235	      0.61306579	      0.88060475	      4.55832964	      0.00000000	      0.00000000	    -55.83442283	      5.24958138	      7.98954198	     70.39975827	    -21.30442427	     46.13124462	     41.31897459	     46.89240033	      0.00000000	      0.00000000	     68.73529961	     -6.88581708	     41.45622564	     42.02661250	     42.58687312	      0.00000000	      0.00000000
      5.04500000	    -18.91681088	    -10.71066792	      2.63532893	      0.34858878	      1.19757866	     -0.25227897	      0.00000000	      0.50000000	      0.00000000	      0.25000000	     64.36303122	    -10.58642624	     -9.73780123	    103.96028317	      1.81444923	      0.72355844	      8.02515458	      0.00000000	      0.00000000	     38.76254989	    -13.32712867	      1.40449593	     34.01740511	      0.59371572	      0.24661485	      4.76085629	      0.00000000	      0.00000000	    -55.63751477	      5.92086985	      8.50655863	     70.49180331	    -21.07214789	     46.30717616	     41.29562252	     46.90397804	      0.00000000	      0.00000000	     68.48468684	     -7.12718102	     41.44813575	     41.84555357	     42.57166537	      0.00000000	      0.00000000
      5.05000000	    -18.54773129	    -10.79842259	      1.93443734	      0.34972295	      1.19729578	     -0.25271156	      0.00000000	      0.50000000	      0.00000000	      0.25000000	     65.32165876	    -10.25679403	     -9.23710643	    105.14239613	      1.83508100	      1.19577065	      8.77305261	      0.00000000	      0.00000000	     36.82203746	    -13.94159837	      0.37126821	     32.57129591	      0.56847636	     -0.72025026	      5.09475718	      0.00000000	      0.00000000	    -55.68400853	      5.99039945	      8.30271513	     72.19286638	    -19.90431371	     50.91135289	     38.19530238	     46.99569420	      0.00000000	      0.00000000	     68.50178026	     -8.20698947	     42.92305051	     40.95228365	     43.03312725	      0.00000000	      0.00000000
      5.05500000	    -18.32382649	    -11.12948153	      1.30415970	      0.35072913	      1.19688885	     -0.25298627	      0.00000000	      0.50000000	      0.00000000	      0.25000000	     66.35977722	     -9.83958588	     -9.09437892	    106.15904833	      1.85282492	      1.55484276	      9.04198931	      0.00000000	      0.00000000	     35.27106483	    -14.73944109	     -0.49701657	     31.44533712	      0.54882467	     -1.59913242	      5.55112763	      0.00000000	      0.00000000	    -55.70606979	      6.19986040	      8.76153800	     72.14905427	    -19.52209767	     51.01047222	     38.11713072	     46.98386274	      0.00000000	      0.00000000	     68.37484627	     -8.46156084	     43.03480775	     40.47815503	     43.00449392	      0.00000000	      0.00000000
      5.06000000	    -18.26661633	    -11.50012814	      0.92462165	      0.35120227	      1.19635792	     -0.25373274	      0.00000000	      0.50000000	      0.00000000	      0.25000000	     67.54391575	     -9.67477016	     -9.15632719	    107.05732164	      1.86850275	      1.95534198	      9.04903016	      0.00000000	      0.00000000	     34.01009613	    -15.27192113	     -0.80137871	     30.38016199	      0.53023385	     -2.30927286	      5.79588413	      0.00000000	      0.00000000	    -55.58061456	      6.71764874	      9.21146340	     72.26098575	    -19.24467005	     51.03244251	     38.11376855	     46.97554176	      0.00000000	      0.00000000	     68.21760087	     -8.67302135	     43.13100059	     40.15307182	     42.97819533	      0.00000000	      0.00000000
      5.06500000	    -17.77950352	    -11.51419829	      0.21930785	      0.35233571	      1.19699106	     -0.25378046	      0.00000000	      0.50000000	      0.00000000	      0.25000000	     68.30307530	     -9.25196406	     -8.77352843	    107.81653258	      1.88175348	      1.98417682	      9.21228004	      0.00000000	      0.00000000	     32.09505659	    -15.92862527	     -2.26225778	     29.35060347	      0.51226467	     -3.13438838	      6.84515275	      0.00000000	      0.00000000	    -55.77817123	      6.61701567	      9.41963574	     72.74103334	    -17.83880815	     51.74070513	     35.64145736	     46.62702011	      0.00000000	      0.00000000	     69.16305769	     -8.81502865	     45.84092998	     37.44947002	     43.03601451	      0.00000000	      0.00000000
